<?xml version="1.0" encoding="UTF-8"?>
<svg id="Layer_1" data-name="Layer 1" xmlns="http://www.w3.org/2000/svg" viewBox="0 0 1080 1080">
  <defs>
    <style>
      .cls-1 {
        fill: #e7ad29;
      }

      .cls-2 {
        fill: #151310;
      }

      .cls-3 {
        fill: #ede2c8;
      }

      .cls-4 {
        fill: #ddab29;
      }

      .cls-5 {
        fill: #e7aa2a;
      }

      .cls-6 {
        fill: #d04d16;
      }

      .cls-7 {
        fill: #f0b17e;
      }

      .cls-8 {
        fill: #ebc293;
      }
    </style>
  </defs>
  <g id="Shand">
    <path class="cls-2" d="m895.28,988.79c-1.95.32-3.63.52-4.69.64-12.23,1.42-26.82,2.55-37.81-3.95-4.22-2.49-8.02-5.63-12.12-8.3-2.46-1.61-5.66-3.44-8.71-2.52-1.55.47-2.78,1.65-3.74,2.95-1.35,1.81-2.55,3.76-3.82,5.64-4.35,6.43-10.99,10.91-18.03,14.32-93.55,45.35-197.26,58.08-299.84,43.61-40.12-5.66-79.54-15.87-117.35-30.43-10.2-3.93-19.67-9.1-29.68-13.18-4.02-1.64-8.16-3.67-10.46-6.64-4.67-6.02-8.22-3.27-12.96-.65-22.69,12.54-45.27,25.33-70.92,31.22-18.86,4.33-38.06,4.26-56.96,2.41-14.64-1.43-29.18-7.56-40.86-15.92-24-17.17-37.9-41.29-42.57-71.18-2.67-17.11-3.81-33.97-2.73-51.11.19-3.08-.34-5.78-2.02-8.25-5.57-8.18-6.33-16.82-5.16-26.7,1.51-12.79.91-26.09,4.89-38.28,4.09-12.53.88-20-8.57-28.92-18.69-17.65-28.88-40.33-29.56-66.4-.78-30.15,5.91-58.23,25.56-82.09,1.91-2.32,2.11-3.68-.35-5.44-3.41-2.44-6.43-5.62-10.12-7.46-19.04-9.49-36-21.74-51.85-35.95-13.95-12.51-15.59-27.59-11.06-45,2.39-9.19,11.06-13.36,18.14-18.03,12.08-7.98,24.93-14.81,37.55-21.97,19.61-11.13,40.44-19.81,61.52-27.4,19.05-6.85,39.09-11.05,58.84-15.84,5.15-1.25,7.52-3.92,9.57-8.28,5.72-12.17,9.17-25.22,16.34-36.88,47.39-77.03,117.88-142.38,204.85-171.62,6.22-2.09,12.49-4.03,18.8-5.84,2.39-.68,5.02-1.15,7.29-3.7-6.2-3.85-13.31-4.77-19.8-6.74-23.04-7-38.25-23.17-48.63-43.22-21.37-41.29-3.78-91.18,35.67-114.29,28.66-16.79,63.83-16.03,92.99-1.06,5.3,2.72,9.5,3,13.72-1.96,27.65-32.5,77.76-43.39,118.29-34.56,24.22,5.28,65.33,22.7,73.54,48.74,1.45,4.61,5.04,6.62,9.97,3.92,70.74-38.74,164.17,48.3,141.07,121.4-9.04,28.62-34.19,52.28-63.37,59.49-7.8,1.93-15.71,3.38-23.48,5.39-2.84.74-5.77,1.41-6.44,4.96-.68,3.58,2,5.5,4.24,7.06,21.75,15.05,41.3,32.67,59.87,51.36,23.98,24.13,44.99,50.83,62.41,79.94,10.12,16.92,17.52,35.5,24.6,54.1,7.14,18.76,11.16,38.19,15.85,57.55,8.94,36.89,9.25,74.41,7.22,111.81-1.35,24.96-6.46,49.62-13.52,73.91-6.59,22.67-15.11,44.41-25.09,65.64-5.07,10.79-11.03,21.2-17.17,31.44-2.3,3.84-2.27,6.22.86,9.21,13.04,12.46,24.74,26.3,36.21,40.03,19.86,23.78,38.82,49.12,50.78,77.91,5.94,14.31,15.54,29.58,9.77,33.98-5.77,4.4-10.48,4.59-15.95,7.45-1.63-16.6-3.51-22.35-10.62-37.69-11.5-24.79-27.7-46.37-44.81-67.35-21.3-26.12-44.01-50.97-71.52-70.74-36.72-26.38-77.91-42.91-121.66-53.6-3.38-.83-3.58.4-4.73,2.41-20.02,35.01-51.18,56.38-87.83,70.57-24.21,9.38-49.41,14.67-75.28,17.68-22.31,2.6-44.58,2.71-66.43-1.1-18.35-3.2-36.55-2.94-54.88-3.09-5.5-.05-8.56,3-9.77,8.35-1.76,7.74-3.89,15.4-5.7,23.13-5.13,21.87-8.97,43.99-12.48,66.17-2.63,16.59-5.18,33.22-8.73,49.63-4.46,20.58-4.7,21.05,14.96,27.52,21.44,7.05,43.28,12.25,65.6,16.04,68.12,11.56,140.15,11.22,207.29-6.23,35.65-9.27,70.36-20.87,101.86-40.64,3.87-2.43,5.8-5.47,7.62-9.29,3.77-7.92.28-13.64-4.39-19.82-18.53-24.48-29.44-51.27-22.62-82.69,4.18-19.23,9.8-37.86,24.74-52.05,2.42-2.3,4.41-4.83,8.16-2.19,4.06,2.85,1.31,5.56.05,8.28-4.04,8.71-9.55,16.65-12.56,25.94-4.68,14.48-9.12,29.38-6.42,44.34,4.83,26.72,18.18,49.31,39.02,67,9.04,7.67,18.11,16.09,30.37,17.87,6.18.9,12.39,1.59,18.62,2,3.13.21,6.29.75,9.41.42,11.41-1.2,15.77,1.29,12.19,7-1.42,2.27-4.28,3.51-6.69,4.23-2.56.76-5.19,1.15-7.82,1.58Zm-438.6-408.96c-5.29,2.67-10.08,5.96-14.86,11.48,8.11-.55,12.23-4.88,16.13-9.58,2.38-1.32,3.99-3.24,5.84-5.98-4.14-.01-5.41,2.35-7.11,4.08Zm24.88,15.82c6.75-2.32,12.21-5.74,12.92-15.17-6.61,4.13-10.68,9.03-15.08,13.54-.75.83-2.81,1.47-2.07,2.46,1.43,1.9,3.01.54,4.23-.83Zm-30.6-247.61c8.63-8.29,19.41-12.29,30.59-15.69,16.4-4.99,31.95,2.1,37.61,17.9,1.73,4.83,2.53,10.13-1.18,14.69-3.74,4.61-9.29,3.82-13.45,2.27-14.61-5.42-28.44-1.86-41.91,3.06-8.99,3.28-17.92,7.65-23.42,16.58,1.14-1.85,7.52-2.74,9.52-3.11,7.02-1.29,14.11-.05,21.14.33,11.22.61,23.56,2,32.97,8.65,8.4,5.94,15.4,14.51,19,24.19,1.51,4.07,2.5,6.64,8.03,3.95,6.38-3.1,13.77-3.46,20.87-2.5,4.41.6,6.52-1.14,7.85-4.99,5.35-15.51,17.39-24.02,32.31-27.66,26.67-6.52,52.15-2.16,75.87,11.78,3.4,2,6.99,4.76,8.02,8.19,1.12,3.75,2.65,7.64,5.55,10.39,3.09,2.93,7.18,3.39,11.26,3.38,1.85,0,3.7-.07,5.54.04,2.67.17,5.34.42,7.98.83,1.6.25,3.2.56,4.79.9.79.17,1.59.34,2.38.53.72.17,1.36.26,2.37.57,2.47.61,4.94,1.27,7.4,1.92,1.26.33,2.52.66,3.78.99.33.08,3.71.8,3.71.92,0-6.05.94-11.4-.18-16.27-3.17-13.8-1.73-26.72,5.06-39.1,1.7-3.1,3.08-6.4,4.97-9.38,2.72-4.3,1.52-7.23-1.93-10.66-17.94-17.84-39.44-29.9-62.64-39.26-29.85-12.04-61.33-17.08-93.1-19.18-23.04-1.52-46.31-1.45-69.22,3.52-29.4,6.37-52.24,20.63-62.81,50.34l1.31,1.89Zm341.39-94.62c2.88-.81,4.96-1.71,7.12-1.95,15.71-1.72,29.39-8.08,41.68-17.79,27.77-21.94,35.78-63.89,17.49-93.23-22.97-36.84-57.24-50.12-99.19-46.59-9.23.78-16.91,6.89-17.78,13.03-.39,2.78.26,5.98-4.06,6.46-4.34.48-6.55-1.58-7.67-5.42-1.69-5.81-2.51-12.16-6.12-17.03-14.35-19.34-31.79-34.47-56.11-40.09-22.2-5.14-44.77-6.37-66.72-1.2-24.83,5.85-47.85,16.12-59.21,41.87-.13.3-.21.63-.39.89-3.35,4.93-6.83,5.16-9.23-.27-1.78-4.03-4.76-6.05-7.98-7.97-31.1-18.47-65.51-16.53-93.35,6.87-20.27,17.04-27.57,39.28-21.83,64.95,7.65,34.23,31.36,51.6,64.36,58.23,4.51.91,8.14.23,8.46-5.82.15-2.77,1.46-5.63,2.82-8.14,2.52-4.69,2.82-8.52-1.09-12.98-3.11-3.55-4.81-8.35-4.66-13.4.05-1.55-.29-3.4,1.54-4.15,1.72-.7,3.04.33,4.22,1.55,4.06,4.19,8.36,8.14,13.22,11.37,13.65,9.06,28.8,12.93,45.04,14.91,15.65,1.91,30.8,1.36,45.85-2.65,15.99-4.26,31.6-9.63,46.44-17.11,1.97-.99,4.1-3.55,7.18-1.5,1.17,7.32-4.96,11.74-7.76,17.41,5.22,2.34,9.87,4.47,14.56,6.51,15.12,6.6,31.1,10.49,47.34,11.9,18.71,1.62,37-1.53,53.9-10.53,6.53-3.48,13.02-7.04,19.71-10.18,1.78-.84,4.69-1.51,6.01,1.11.91,1.8.08,3.57-1.44,5.19-10.48,11.14-21.79,21.01-36.49,26.41-25.74,9.46-51.34,7.08-76.71-.98-12.19-3.87-23.6-9.74-34.54-16.5-3.51-2.17-6.88-5.58-12.2-2.49-8.05,4.68-17.01,7.08-26.23,8.88-25.88,5.05-51.41,6.27-76.29-4.49-4.32-1.87-8.53-4.01-12.89-6.08-6.07,29.87-15.66,58.29-22.35,88.47,49.5-19.92,99.93-18.2,149.75-9.93,50.59,8.4,96.98,28.16,133.24,67.28,2.48-8.24,2.36-15.39,3.47-22.34,2.56-16.03,5.8-31.93,7.37-48.13.95-9.79,2.85-19.49,4.62-29.18.63-3.47,1.81-6.9,6.5-7.23,5.04-.35,7.82,2.1,9.24,6.57.46,1.47.66,3.03,1.18,5.49Zm153.08,345.82c1.72-17.57-1.01-38.14-4.4-58.49-5.93-35.65-17.06-69.9-33.21-102.19-16.78-33.55-39.12-63.34-65.2-90.4-15.04-15.6-31.22-29.81-48.45-42.87-7.42-5.62-10.74-4.07-11.71,5.25-.2,1.93.02,3.9-.22,5.82-1.64,13.41-2.79,26.92-5.27,40.18-1.39,7.46-1.96,14.56-.32,21.91,2.62,11.69,4.09,23.49,3.8,35.52-.24,9.76-.02,9.92,10.14,10.17,3.96.1,7.64,1.28,11.46,1.85,23.52,3.5,37.97,20.16,42.43,41.45,3.62,17.28.8,33.9-3.21,50.68-6.49,27.16-35.23,55.79-64.45,55.49-4.67-.05-6.23,1.96-6.13,6.42.49,21.34-.62,42.25-7.12,63.09-3.92,12.58-9.1,24.06-16.49,34.45-7.45,10.47-15.26,20.02-8.29,33.83,1.08,2.14.48,5.1.74,7.67.53,5.05,3.3,8.56,8.12,9.78,28.92,7.28,56.55,17.98,83.23,31.16,17.01,8.4,33.77,17.34,48.52,29.46,9.06,7.44,11.53,7.34,18.01-2.96,14.21-22.57,24.44-47.11,32.12-72.42,11.01-36.25,17.03-73.51,15.88-114.85Zm-618.01,113.31c-.09,0-.18,0-.27,0,0,13.6,1,27.29-.27,40.77-1.35,14.28-8.38,19.19-17.4,18.8-12.25-.53-15.01-3.53-20.85-16.41-1.28-2.82-1.12-7.37-5.38-6.69-3.79.6-2.5,4.8-2.4,7.43.37,9.51-.71,18.74-4.42,27.54-1.34,3.18-.98,6.09-.23,9.39,2.78,12.22,6.03,24.41,4.8,37.2-.37,3.85-.05,7.77-.05,11.65,0,4.02,1.61,5.8,5.97,5.36,10.98-1.12,20.9-4.33,27.8-13.52,12.53-16.69,29.64-28.61,45.68-41.1,10.14-7.9,21.06-14.74,32.38-20.81,5.05-2.71,10.19-5.31,15.35-7.79,4.12-1.98,10.09-3.11,12.74-7.18,2.76-4.26.86-9.72.21-14.33-1.02-7.31-2.01-18.46-10.34-21.11-2.83-.9-5.76-.28-8.58-1.13-3.49-1.06-6.7-3.68-8.99-6.44-3.64-4.4-3.78-9.9-6.75-14.55-5.43-8.51-8.23-18.58-8.61-28.63-.39-10.1,2.91-20.39.24-30.35-3.32-12.38-2.62-25.12-1.77-37.64,1.28-18.87,5.94-36.88,18.04-52.14,2.11-2.67,3.18-5.51,3.05-8.93-.73-19.58,4.51-37.68,14.13-54.54,2.61-4.58,2.2-8.41-.37-12.63-6.81-11.19-8.41-23.52-8.02-36.36.4-13.02.12-14.16-6.5-25.51-2.91-4.99-3.3-9.43-.06-14.43,3.1-4.79,7.07-3.58,11.15-2.38,4.3,1.27,7.03-.22,10.02-3.59,7.37-8.29,9.42-18.52,10.44-28.69,2.16-21.42,9.34-40,26.22-54.13,2.21-1.85,4.52-3.87,4.85-7.03,1.43-13.88,6.86-26.89,8.8-40.66.89-6.31-.45-8.33-6.07-6.39-10.05,3.46-20.38,6.06-30.13,10.43-22.28,9.98-44.07,20.65-64.37,34.51-13.32,9.09-27.06,17.96-38.5,28.95-16.19,15.56-32.46,31.15-46.36,49.25-15.96,20.78-30.25,42.22-41.24,65.92-4.03,8.69-2.34,11.9,7.19,12.33,11.91.54,19.44,7.97,23.47,17.42,4.02,9.44,4.4,20.26-3.48,29.03-2.75,3.06-3.18,4.98-.82,9.06,6.09,10.51,12.32,21.25,16.11,32.69,8.72,26.29,21.17,51.04,30.25,77.16,7.67,22.06,14.16,44.19,13.39,67.86-.24,7.44-.04,14.89-.04,22.34Zm-59.04,165.11c-39.63,39.07-83.23,42.47-130.97,16.33-2.46,4.92-3.24,9.54-2.29,14.38,2.26,11.62,3.07,23.51,6.24,34.96,5.29,19.09,14.39,35.59,30.6,47.87,27.94,21.15,58.51,23.37,91.28,14.53,27.72-7.48,52.25-21.06,75.99-36.66,4.82-3.17,7.32-7.27,7.55-12.31.44-9.35,2.65-18.54,4.65-27.36,6.07-26.8,14.13-53.15,21.72-79.58,1.4-4.88,4.01-9.48,6.55-13.93,1.68-2.95,4.7-4.97,8.15-2.99,2.69,1.54,1.66,4.17.89,6.84-3.08,10.65-6.54,21.27-8.46,32.14-4.22,23.88-10.91,47.22-14.93,71.11-1.74,10.33-4.37,20.54-4.85,31.07-.13,2.9-.03,4.96,3.58,6.69,11.78,5.67,23.77,10.68,35.96,14.98,2.23-3.08.89-6.14,1.55-8.89,5.27-21.92,7.37-44.39,11.33-66.54,4.62-25.89,8.21-51.96,15.15-77.4,5.71-20.91,6.63-21.8,28.74-22.35,12.39-.31,24.8-.06,39.15-.06-13.71-11.94-24.01-24.07-29.71-39.52-.42-1.14-1.25-2.65-2.23-2.98-11.44-3.87-21.34-10.73-35.42-4.45-38.51,17.17-72.44,40.56-102.99,69.23-12.51,11.74-25.66,21.72-44.19,20.31-6.3-.48-5.12,3.53-3.46,6.86,8.92,17.84,6.35,37.03,6.86,55.87.02.64-.09,1.29-.13,1.94-.23,3.33-1.62,5.57-5.33,5.45-3.55-.12-3.98-2.78-4.08-5.45-.16-4.2.13-8.44-.22-12.62-1.06-12.5-2.35-24.97-6.66-37.48Zm-145.85-162.33c-3.67-1.79-4.86-4.76-5.02-8.61-.26-6.24,1.09-11.95,3.43-17.77,7.25-17.97,18.43-33.18,31.6-47.15,5.45-5.78,5.01-6.04-1.24-14.47-3.81-5.13-7.39-6.13-12.98-2.67-11,6.81-19.37,16.01-25.7,27.07-14.67,25.62-22,52.74-13.01,81.91,13.05,42.37,44.65,66.22,84.92,78.62,29.6,9.11,72.25-4.64,80.22-44.84,4.88-24.65-9.14-56.1-31.88-63.85-2.79,8.29-6.44,16.18-12.45,22.66-3.13,3.38-7.66,4.8-11.36,1.92-4.2-3.27-2.2-7.28.81-10.84,10.37-12.24,13.72-26.56,12.94-42.33-.26-5.3-2.54-8.32-6.82-10.6-4.6-2.46-8.66-1.4-12.61,1.52-20.27,14.96-35.03,34-43.17,57.99-1.13,3.33-2.4,6.62-3.77,9.86-.78,1.84-2.11,3.6-4.37,2.94-1.89-.55-3.33-2.23-3.24-4.32.21-4.43-.35-8.77.9-13.31,6.35-23.1,19.25-41.84,36.75-57.8,2.78-2.54,6.59-4.51,3.43-10.3-2.8-5.15-6.33-7.08-11.33-7.16-5-.08-9.24,2.4-13.09,5.5-17.62,14.17-28.56,32.83-36.19,53.73-1.61,4.42-2.15,9.48-6.78,12.32Zm550.23-129.59c25.37-12.62,40.41-32.75,49.29-57.95,9.15-25.99,8.15-53.02,7.81-79.97-.03-2.66-1.21-3.52-3.77-4.5-12.51-4.81-25.45-5.79-38.64-5.67-3.49.03-4.37,1.47-4.27,4.68.19,6.07-.62,12-1.82,18.04-8.33,42.24-43.23,55.68-76.32,50.41-37.45-5.97-52.83-36.58-52.13-64.24.3-12.05-4.63-16.32-15.56-12.18-4.69,1.78-10.07,7.21-11.13,11.89-1.87,8.23-5.22,16.55-4.42,25.17.56,6-1.43,8.46-7.07,10.25-14.85,4.73-24.8,15.2-28.79,30.01-3.48,12.91-1.84,26.22,12.79,33.83,19.43,10.12,39.01,9.82,57.82-.95,7.98-4.57,15.39-10.9,12.42-22.45-.87-3.4,1.27-6.45,4.23-8.02,3.58-1.9,6.16.75,8.23,3.22,1.19,1.42,2.04,3.38,2.38,5.22.68,3.6,2.67,4.64,6.13,4.52,15.89-.52,30.24,5.04,44.28,11.6,20.05,9.37,34.25,23.66,38.53,47.08Zm-582.52-7.71c14.94,7.83,28.49,15.83,40.87,25.68,2.35,1.87,4.5,3.21,7.78,3.01,12.88-.78,21.37,5.99,26.44,17.07,1.65,3.6,2.99,5.58,6.79,4.04,10.71-4.33,18.06,1.06,24.48,8.5,7.49,8.68,7.34,8.78,19.53,11.34,1.53.32,3.32.75,4.38,1.77,4.57,4.41,10.46,5.92,16.09,8.2,5.34,2.15,10.65,4.76,15.34,8.06,14.7,10.34,24.94,23.28,23.11,42.75-.48,5.13-.39,10.35-.16,15.51.21,4.77,3.99,6.59,7.88,6.93,5.44.47,3.64-4.1,3.84-6.95.25-3.54-.1-7.13.26-10.66.27-2.63,1.59-5.04,4.56-5.54,3.16-.54,5.53.45,6.96,3.75,1.16,2.68,2.04,5.25,1.96,8.21-.15,5.5.35,11.04-.24,16.48-.61,5.65,2.19,10.58,2.34,16.05.11,3.79,4.07,5.47,6.95,5.56,3.81.12,2.61-3.9,2.49-6.07-.55-9.99,2.67-19.62,2.15-29.67-.66-12.79-.84-25.57-1.75-38.38-1.1-15.38-2.91-30.42-7.58-45.09-12.74-40.1-30.61-78.12-47.52-116.51-4.36-9.91-5.22-10.19-16.08-7.51-14.62,3.6-29.3,6.93-43.88,10.69-38.95,10.03-74.2,27.59-106.99,52.81Zm174.23,225.53c-1.73,1.4-2.79,2.09-3.65,2.97-17.14,17.44-39.1,23.59-62.28,23.24-17.49-.26-34.6-5.44-49.46-15.94-4.03-2.85-8.12-5.97-13.47-7.02-4.64,18.22-6.68,36.22-6.48,54.52.03,3.05.48,5.54,2.67,7.83,15.64,16.37,34.09,26.28,57.27,27.39,16.58.79,31.92-2.91,46.01-10.77,19.23-10.73,33.09-25.5,32.54-49.72-.24-10.58-.91-21.05-3.14-32.49Zm564.47-317.61c0-4.52.63-9.15-.17-13.53-.84-4.57-1.77-9.21-3.8-13.57-8.78-18.79-39.14-24.78-56.12-12.34-7.84,5.74-15.63,12.93-17.23,23-1.37,8.64.88,18.19,1.61,26.84,1.35,16.08,3.6,32.6,3.6,48.74.2,6.09,2.19,9.62,7.95,11.4,15.63,4.84,29.45.84,41.2-9.53,18.27-16.13,22.79-37.86,22.97-61.02Zm-260.83-45.48c.3,8.46.1,15.23,2.42,21.77,6.27,17.72,18.19,29.98,36.71,33.17,17.64,3.04,34.9,1.04,47.35-14.53,12.02-15.04,15.14-32.46,12.39-50.96-1.15-7.73-5.06-14.76-11.97-19.13-14.68-9.28-30.85-16.02-48.17-13.52-23.69,3.42-31.34,7.56-37.54,29.5-1.37,4.86-.92,10.24-1.18,13.69Zm-480.98,122.87c12.27-11.19,25.14-19.15,38.34-26.36,37.05-20.23,76.99-31.07,118.9-35.1,9.92-.95,15.55-7.08,15.26-16.2-.3-9.52-5.8-14.42-16.11-15.09-16.33-1.06-32,2.48-47.76,5.93-46.95,10.28-89.6,30.57-130.83,55.4,13.61,5.81,20.01,16.3,22.18,31.42Zm549.34,47.6c-17.21,11.47-34.71,10.9-52.45,7.95-4.75-.79-8.48-1.16-11.47,3.89-2.49,4.2-7.14,5.95-11.87,7.67-12.54,4.56-25.43,3.48-38.29,3.58-8.66.06-17.52-2.13-22.85-8.15-7.18-8.09-15.38-7.58-24.25-7.55-4.75.01-9.5.59-14.17-1.64-1.99-.95-5.12-1.07-5.45,3.08-.85,10.83-.18,21.34,6.24,30.59,5.26,7.57,13.53,10.58,21.74,13.62,4.94,1.83,8.6-1.21,12.8-2.12-.6-2.47-1.98-2.32-3.15-2.76-3.79-1.42-7.66-3.69-6.07-8.25,1.49-4.28,5.51-6.17,10.31-4.99,2.18.53,4.35,1.14,6.49,1.83,19.56,6.35,39.29,8.31,59.3,2.19,3.93-1.2,6.26,1.11,7.99,3.85,3.4,5.41-3.32,6.32-5.37,10.51,16.85,5.31,32.3,4.09,46.94-5.26,17.1-10.92,22.92-27.44,23.59-48.02Zm-172.92-210.16c-2.59,0-5.18,0-7.77,0-27.62.05-30.55,4.24-35.86,27.69-4.55,20.08-1.63,39.01,16.34,53.13,13.4,10.52,39.32,13.13,52.58-2.1,2.54-2.92,5.54-5.48,9.27-6.51,7.87-2.17,10.8-7.93,12.78-15.15,2.02-7.36,2.04-14.74,1.16-22.06-2.58-21.44-18.41-35.16-39.76-35-2.91.02-5.83,0-8.74,0Zm113.61,422.04c14.19-1.87,27.89-4.54,41.4-8.24,43.13-11.8,78.1-35.76,105.79-70.7,2.6-3.28,4.56-6.59,3.34-10.55-2.29-7.41-1.52-15.47-5.43-23.99-3.26,5.8-5.92,10.85-8.87,15.72-11.27,18.56-27.38,30.71-48.77,34.76-4.87.92-8.12,2.65-11.33,5.97-10.91,11.28-24.33,18.41-39.88,19.54-20.14,1.46-30.34,12.87-35.08,31.05-.47,1.8-.68,3.66-1.17,6.43Zm-154.65-253.53c10.62-21.17,26.53-33.98,48.93-39.16-5.11-9.07.42-17.17,1.94-25.76-16.75,3.28-25.98,1.04-48.13-11.69-12.48,23.77-17.75,50.72-2.74,76.6Zm-296.96,44.02c-10.98-7.17-20.64-15.53-32.32-19.97-13.96-5.31-21.47-12.88-18.67-29.17,1.61-9.36-5.22-17.1-14.24-20.38-7.26-2.64-12.42-.53-14.08,6.81-1.5,6.61-2.01,13.72,3.02,19.34,6.4,7.15,12.92,14.12,20.74,19.96,12.95,9.67,28.11,15.62,41.01,25.23,7.22,5.38,7.11,5.54,14.55-1.81Zm355.35,170.2c13.14,23.76,31.59,38.2,53.88,39.63-2.35-2.81-.9-6.13-1.16-9.2-1.48-17.48-15.43-33.01-32.71-30.57-6.3.89-12.83.14-20.01.14Zm23.3-169.6c19.99,5.67,39.1,7.43,59.85-.09-14.23-4.86-24.4-12.57-32.03-24.56-6.62,11.39-16.54,17.86-27.82,24.65Zm36.7,182.39c6.16,9.34,7.81,19.29,8.83,29.52,2.95-1.95,5.92-1.19,8.75-1.39,1.81-.12,3.98.4,4.18-2.52.75-10.64,5.49-20.01,10.23-29.84-11.37-2.06-21.46-.22-31.99,4.23Zm-302.41-121.29c-.4,3.53-.34,7.13-1.32,10.41-.79,2.63.39,3.88,2.09,4.52,8.6,3.21,14.74,9.82,21.73,15.98.38-14.23-7.03-24.21-22.5-30.91Zm215.13,62.63c-3.39-17.33-1.64-33.68.77-52.21-10.74,20.06-10.79,34.56-.77,52.21Zm30.62-34.33c-5.6,17.53-4.41,34.4,6.2,50.13-4.44-16.4-6.4-33.06-6.2-50.13Zm136.62-5.08c-1.52,16.97-1.88,34.05-7.84,50.29,10.97-15.37,10.6-32.67,7.84-50.29Zm97.65-92.46c3.22,16.46,4.46,32.84,2.76,51.39,7.36-17.82,6.07-38.19-2.76-51.39Zm-29.04,36.98c.33,14.99,3.32,29.95,0,44.97,7.9-15.05,6.25-30.03,0-44.97Zm-110.03,66.57c-4.25,14.8-4.04,30.26-6.88,45.27,9.03-14.09,7.97-29.68,6.88-45.27Zm-48.3,47.4c-2.54-15.32-.98-30.76-2.23-46.06-4.74,15.62-4.58,31.03,2.23,46.06Zm-124.47-147.26c-9.44,11.98-13.23,29.19-8.35,39.59,1.44-14.4,5.84-26.78,8.35-39.59Zm253.86,63.89c-3.2,14.61-2.25,29.29-2.3,43.94,5.7-14.43,3.58-29.24,2.3-43.94Zm-51.02-93.51c8.04,6.81,16.44,12.9,29.18,10.97-10.03-5.11-19.51-8.22-29.18-10.97Zm-189.2,112.62c-.88-12.43,1.41-24.41,3.89-36.38-6.7,11.62-10.29,23.56-3.89,36.38Zm328.15-89.66c2.31-20,.88-27.08-6.59-33.76,2.99,10.84,2.18,22.26,6.59,33.76Zm-156.29-6.08c-8.75-4.71-13.74-14.16-22.66-18.79,4.83,9.41,11.47,16.71,22.66,18.79Z"/>
    <path class="cls-3" d="m908.12,983.43c1.24-1.06,2.64-2.03,2.36-3.89-.3-1.93-2.09-4.54-12.21-3.48-9.67,1.01-19.24-1.14-28.69-2.51-12.26-1.78-21.33-10.2-30.37-17.87-20.84-17.69-34.19-40.28-39.02-67-2.7-14.96,1.74-29.86,6.42-44.34,3-9.29,8.52-17.23,12.56-25.94,1.26-2.72,4.01-5.43-.05-8.28-3.76-2.64-5.74-.11-8.16,2.19-14.94,14.19-20.56,32.83-24.74,52.05-6.82,31.42,4.09,58.21,22.62,82.69,4.68,6.18,8.16,11.9,4.39,19.82-1.82,3.82-3.75,6.86-7.62,9.29-31.5,19.77-66.21,31.37-101.86,40.64-49.73,12.93-100.44,14.93-151.46,13.45-18.85-.55-37.28-4.07-55.83-7.22-22.31-3.79-44.16-8.98-65.6-16.04-19.66-6.47-19.42-6.94-14.96-27.52,3.56-16.4,6.11-33.04,8.73-49.63,3.51-22.18,7.35-44.3,12.48-66.17,1.81-7.73,3.94-15.39,5.7-23.13,1.21-5.35,4.27-8.39,9.77-8.35,18.33.16,36.53-.11,54.88,3.09,21.85,3.81,44.11,3.7,66.43,1.1,25.87-3.01,51.08-8.3,75.28-17.68,36.65-14.19,67.8-35.56,87.83-70.57,1.15-2.01,1.35-3.24,4.73-2.41,43.75,10.69,84.93,27.22,121.66,53.6,27.51,19.76,50.22,44.62,71.52,70.74,17.1,20.98,33.31,42.56,44.81,67.35,7.11,15.34,10.31,31.74,10.62,34.73-12.85,3.11-85.92,14.46-82.21,11.29Zm-292.95-3.84c.21,11.75,9.42,21.56,20.14,21.43,13-.15,24.53-10.45,24.33-22.42-.2-11.66-11.52-22.1-24.67-22.01-10.99.07-20.01,10.66-19.79,22.99Zm-171.28-2.46c-.42,13.49,7,22.07,19.44,22.47,12.93.41,23.14-8.28,23.68-20.15.58-12.84-8.72-22.71-21.66-23-12.68-.28-21.05,7.79-21.46,20.68Zm206.03-76.87c12.73.09,19.73-7.58,19.8-21.73.06-11.05-9.44-20.69-20.73-21.05-11.68-.38-22.09,9.93-22.18,21.96-.09,11.58,10.06,20.72,23.11,20.82Zm-174.92,3.79c13.49-.12,22-8.41,21.83-21.26-.15-11.52-10.56-22.37-21.53-21.33-13,1.23-20.98,8.67-21.35,22.6-.29,11.28,9.29,20.09,21.05,19.98Z"/>
    <path class="cls-3" d="m792.36,253.42c-.52-2.46-.72-4.02-1.18-5.49-1.41-4.48-4.19-6.93-9.24-6.57-4.69.33-5.87,3.76-6.5,7.23-1.77,9.69-3.66,19.39-4.62,29.18-1.58,16.2-4.82,32.1-7.37,48.13-1.11,6.95-.99,14.11-3.47,22.34-36.26-39.12-82.65-58.88-133.24-67.28-49.82-8.27-100.24-9.98-149.75,9.93,6.69-30.18,16.28-58.6,22.35-88.47,4.37,2.07,8.57,4.21,12.89,6.08,24.88,10.76,50.41,9.53,76.29,4.49,9.22-1.8,18.18-4.2,26.23-8.88,5.32-3.09,8.7.32,12.2,2.49,10.94,6.76,22.35,12.62,34.54,16.5,25.38,8.06,50.97,10.44,76.71.98,14.7-5.4,26-15.27,36.49-26.41,1.52-1.62,2.35-3.39,1.44-5.19-1.32-2.62-4.23-1.95-6.01-1.11-6.69,3.14-13.18,6.7-19.71,10.18-16.9,9-35.19,12.15-53.9,10.53-16.25-1.41-32.23-5.3-47.34-11.9-4.68-2.05-9.33-4.17-14.56-6.51,2.8-5.67,8.93-10.09,7.76-17.41-3.08-2.04-5.21.51-7.18,1.5-14.84,7.48-30.45,12.86-46.44,17.11-15.06,4.01-30.2,4.56-45.85,2.65-16.23-1.98-31.39-5.85-45.04-14.91-4.86-3.23-9.16-7.18-13.22-11.37-1.18-1.22-2.5-2.26-4.22-1.55-1.83.75-1.5,2.6-1.54,4.15-.15,5.05,1.55,9.85,4.66,13.4,3.91,4.46,3.6,8.29,1.09,12.98-1.35,2.52-2.67,5.38-2.82,8.14-.32,6.05-3.95,6.72-8.46,5.82-33-6.62-56.71-24-64.36-58.23-5.74-25.67,1.56-47.91,21.83-64.95,27.84-23.4,62.25-25.34,93.35-6.87,3.22,1.91,6.2,3.94,7.98,7.97,2.4,5.43,5.88,5.19,9.23.27.18-.26.26-.59.39-.89,11.36-25.75,34.37-36.02,59.21-41.87,21.95-5.17,44.52-3.94,66.72,1.2,24.32,5.63,41.76,20.76,56.11,40.09,3.61,4.87,4.44,11.21,6.12,17.03,1.11,3.84,3.33,5.91,7.67,5.42,4.32-.48,3.67-3.67,4.06-6.46.86-6.15,8.55-12.26,17.78-13.03,41.95-3.53,76.23,9.75,99.19,46.59,18.29,29.34,10.28,71.29-17.49,93.23-12.29,9.71-25.97,16.07-41.68,17.79-2.16.24-4.24,1.14-7.12,1.95Z"/>
    <path class="cls-3" d="m268.39,877.65c4.31,12.51,5.6,24.98,6.66,37.48.35,4.18.06,8.41.22,12.62.1,2.66.53,5.32,4.08,5.45,3.71.13,5.1-2.12,5.33-5.45.05-.65.15-1.29.13-1.94-.52-18.83,2.06-38.03-6.86-55.87-1.67-3.33-2.85-7.34,3.46-6.86,18.53,1.41,31.68-8.57,44.19-20.31,30.55-28.67,64.48-52.05,102.99-69.23,14.08-6.28,23.98.58,35.42,4.45.98.33,1.81,1.84,2.23,2.98,5.7,15.45,16,27.58,29.71,39.52-14.35,0-26.76-.25-39.15.06-22.1.55-23.03,1.43-28.74,22.35-6.94,25.44-10.53,51.51-15.15,77.4-3.95,22.15-6.06,44.62-11.33,66.54-.66,2.75.68,5.81-1.55,8.89-12.19-4.3-24.18-9.31-35.96-14.98-3.6-1.73-3.71-3.79-3.58-6.69.49-10.53,3.11-20.74,4.85-31.07,4.02-23.89,10.71-47.23,14.93-71.11,1.92-10.88,5.39-21.5,8.46-32.14.77-2.67,1.8-5.3-.89-6.84-3.45-1.98-6.47.05-8.15,2.99-2.54,4.45-5.14,9.05-6.55,13.93-7.6,26.43-15.65,52.79-21.72,79.58-2,8.82-4.21,18.01-4.65,27.36-.24,5.04-2.73,9.14-7.55,12.31-23.73,15.6-48.27,29.18-75.99,36.66-32.77,8.85-63.34,6.63-91.28-14.53-16.21-12.27-25.31-28.78-30.6-47.87-3.17-11.46-3.97-23.34-6.24-34.96-.94-4.85-.17-10.09,2.29-14.38,47.74,26.13,91.34,22.74,130.97-16.33Z"/>
    <path class="cls-7" d="m449.66,346.15c10.57-29.71,33.41-43.96,62.81-50.34,22.92-4.97,46.18-5.05,69.22-3.52,31.77,2.1,63.25,7.14,93.1,19.18,23.2,9.36,44.7,21.42,62.64,39.26,3.45,3.43,4.65,6.36,1.93,10.66-1.89,2.98-3.27,6.28-4.97,9.38-6.78,12.38-8.22,25.3-5.06,39.1,1.12,4.87.18,10.22.18,16.27-11.04-2.62-21.55-6.28-32.64-6.61-.28,0-.89-.05-1.62-.11-1.59-.12-4.4.14-6.33-.07-7.7.04-11.66-5.3-14.16-13.66-1.03-3.43-4.62-6.19-8.02-8.19-23.73-13.94-49.2-18.3-75.87-11.78-14.92,3.65-26.96,12.16-32.31,27.66-1.33,3.85-3.43,5.59-7.85,4.99-7.1-.96-14.49-.6-20.87,2.5-5.53,2.69-6.52.12-8.03-3.95-4.24-11.42-12.77-21.28-23.76-26.65-6.94-3.39-14.59-4.96-22.22-5.85-7.62-.89-15.47-1.66-23.13-1.13-1.46.1-2.93.34-4.38.62s-3.16,1.13-4.54,1.13c-.97.3-4.04.95-4.58,1.82,5.51-8.93,14.43-13.3,23.42-16.58,13.47-4.92,27.3-8.48,41.91-3.06,4.17,1.55,9.71,2.34,13.45-2.27,3.7-4.56,2.91-9.87,1.18-14.69-5.66-15.8-21.21-22.89-37.61-17.9-11.18,3.4-21.96,7.4-30.59,15.69-.44-.63-.87-1.26-1.31-1.89Zm229.83,20.16c-.62-12.38-7.88-20.99-17.58-27.19-22.25-14.24-45.89-16.77-70.35-5.75-8.19,3.69-12.36,10.71-13.19,19.33-1.08,11.32,4.83,15.11,15.23,10.38,11.8-5.37,23.87-6.46,36.66-3.5,11.93,2.76,21.94,8.88,31.9,15.43,3.99,2.63,8.13,3.59,12.74,1.19,4.15-2.17,5.05-5.55,4.59-9.89Z"/>
    <path class="cls-7" d="m122.54,715.32c4.63-2.84,5.17-7.9,6.78-12.32,7.63-20.9,18.56-39.56,36.19-53.73,3.86-3.1,8.09-5.58,13.09-5.5,5,.08,8.52,2,11.33,7.16,3.15,5.8-.65,7.76-3.43,10.3-17.5,15.96-30.4,34.7-36.75,57.8-1.25,4.55-.69,8.88-.9,13.31-.1,2.09,1.34,3.77,3.24,4.32,2.26.66,3.59-1.1,4.37-2.94,1.37-3.24,2.64-6.53,3.77-9.86,8.14-23.99,22.9-43.03,43.17-57.99,3.95-2.91,8.01-3.97,12.61-1.52,4.28,2.29,6.56,5.31,6.82,10.6.78,15.77-2.57,30.1-12.94,42.33-3.01,3.55-5.01,7.57-.81,10.84,3.7,2.88,8.23,1.46,11.36-1.92,6.01-6.48,9.65-14.37,12.45-22.66,22.75,7.76,36.77,39.2,31.88,63.85-7.97,40.2-50.62,53.95-80.22,44.84-40.27-12.39-71.87-36.25-84.92-78.62-8.98-29.17-1.66-56.28,13.01-81.91,6.33-11.06,14.7-20.26,25.7-27.07,5.58-3.46,9.17-2.45,12.98,2.67,6.26,8.43,6.69,8.69,1.24,14.47-13.17,13.97-24.34,29.18-31.6,47.15-2.35,5.81-3.69,11.53-3.43,17.77.16,3.86,1.35,6.82,5.02,8.61Zm115.81,56.24c-3.46-16.15-8.41-31.94-26.97-38.95-4.4-1.66-7.84-2.86-10.88,1.7-2.97,4.46,1,6.99,2.88,10,1.01,1.62,2.95,2.34,4.86,2.81,11.65,2.86,14.41,12.48,16.16,22.3.61,3.41,2.38,6.46,2.33,10.13-.03,2.78,2.45,3.91,5.49,4.1,3.54.22,4.52-2.08,5.25-4.44.65-2.1.54-4.44.86-7.65Z"/>
    <path class="cls-7" d="m672.77,585.73c-4.28-23.42-18.48-37.71-38.53-47.08-14.04-6.56-28.39-12.12-44.28-11.6-3.45.11-5.45-.92-6.13-4.52-.35-1.84-1.19-3.8-2.38-5.22-2.07-2.47-4.65-5.12-8.23-3.22-2.95,1.57-5.1,4.62-4.23,8.02,2.97,11.55-4.45,17.89-12.42,22.45-18.81,10.77-38.39,11.07-57.82.95-14.62-7.62-16.27-20.93-12.79-33.83,3.99-14.81,13.94-25.28,28.79-30.01,5.64-1.8,7.62-4.25,7.07-10.25-.8-8.62,2.55-16.93,4.42-25.17,1.06-4.68,6.44-10.11,11.13-11.89,10.92-4.14,15.86.13,15.56,12.18-.7,27.66,14.68,58.27,52.13,64.24,33.09,5.28,67.99-8.17,76.32-50.41,1.19-6.04,2.01-11.97,1.82-18.04-.1-3.21.77-4.65,4.27-4.68,13.19-.12,26.14.86,38.64,5.67,2.56.98,3.73,1.84,3.77,4.5.35,26.95,1.35,53.98-7.81,79.97-8.88,25.21-23.92,45.33-49.29,57.95Z"/>
    <path class="cls-5" d="m90.26,578.02c32.79-25.21,68.04-42.77,106.99-52.81,14.58-3.75,29.26-7.09,43.88-10.69,10.86-2.67,11.71-2.39,16.08,7.51,16.92,38.4,34.78,76.41,47.52,116.51,4.66,14.67,6.48,29.71,7.58,45.09.91,12.81,1.09,25.59,1.75,38.38.52,10.04-2.7,19.68-2.15,29.67.12,2.17,1.32,6.2-2.49,6.07-2.89-.09-6.84-1.77-6.95-5.56-.15-5.47-2.95-10.41-2.34-16.05.59-5.44.09-10.99.24-16.48.08-2.96-.8-5.53-1.96-8.21-1.43-3.29-3.79-4.28-6.96-3.75-2.97.5-4.29,2.92-4.56,5.54-.36,3.52,0,7.11-.26,10.66-.2,2.85,1.6,7.42-3.84,6.95-3.89-.34-7.67-2.16-7.88-6.93-.23-5.16-.32-10.38.16-15.51,1.83-19.47-8.41-32.4-23.11-42.75-4.69-3.3-10-5.91-15.34-8.06-5.64-2.27-11.52-3.79-16.09-8.2-1.05-1.02-2.84-1.45-4.38-1.77-12.19-2.56-12.04-2.67-19.53-11.34-6.42-7.44-13.77-12.83-24.48-8.5-3.8,1.54-5.14-.44-6.79-4.04-5.06-11.07-13.56-17.85-26.44-17.07-3.29.2-5.44-1.14-7.78-3.01-12.38-9.84-25.93-17.85-40.87-25.68Zm158.61,62.2c5.27-.3,10.34-.27,15.29-2.28,13.67-5.54,17.08-16.55,8.14-28.37-8.45-11.17-19.97-15.98-33.84-14.28-10.31,1.26-18.58,10.46-19.68,20.97-1.07,10.22,4.98,18.18,15.97,22.22,4.77,1.75,9.55.96,14.12,1.74Zm-13.65-62.7c7.22-.77,15.25-2.79,21.87-8.35,7.91-6.64,8.58-15.91,1.99-23.83-9.71-11.66-22.63-14.24-36.71-12.06-9.33,1.45-18.82,11.49-18.97,20.73-.15,8.67,5.47,14.7,13.14,18.57,5.5,2.77,11.2,4.79,18.68,4.95Zm-69.76-21.34c-3.81,0-6.41-.25-8.96.05-8.25.96-14.8,5.13-18.23,12.56-3.42,7.4-.72,14.66,3.98,20.69,10.5,13.49,32.66,15.36,45.84,4.24,9.06-7.64,10.1-15.89,2.83-25.25-6.71-8.64-15.29-13.59-25.46-12.28Zm116.57,112.09c-2.22.33-3.43,1.68-3.01,3.83.64,3.34,1.19,6.94,6.09,6.56,2.12-.17,3.86-.47,3.37-3.13-.68-3.67-2.81-6.16-6.44-7.26Z"/>
    <path class="cls-3" d="m264.49,803.55c2.23,11.44,2.9,21.91,3.14,32.49.56,24.21-13.31,38.99-32.54,49.72-14.09,7.86-29.43,11.56-46.01,10.77-23.17-1.11-41.62-11.02-57.27-27.39-2.19-2.29-2.64-4.77-2.67-7.83-.2-18.3,1.84-36.3,6.48-54.52,5.35,1.05,9.43,4.17,13.47,7.02,14.86,10.5,31.97,15.68,49.46,15.94,23.18.35,45.14-5.8,62.28-23.24.86-.88,1.92-1.57,3.65-2.97Z"/>
    <path class="cls-7" d="m828.96,485.95c-.18,23.16-4.7,44.88-22.97,61.02-11.75,10.38-25.57,14.37-41.2,9.53-5.75-1.78-7.74-5.31-7.95-11.4-.63-18.85-5.36-61.86-5.79-64.76-2.35-15.79,6.51-25.55,17.81-33.83,16.98-12.44,47.34-6.45,56.12,12.34,2.04,4.36,2.97,9,3.8,13.57.8,4.37.17,9.01.17,13.53Zm-60.39,15.74c.27,7.29-.49,12.51,1.81,17.42,1.15,2.45,1.01,6.37,5.14,5.55,3.3-.65,2.66-3.81,2.91-6.37.75-7.6,1.86-15.14,2.23-22.82.27-5.61,3.26-11.09,8.27-14.43,4.16-2.77,6.87.97,10.15,2.93,3.76,2.24,7.66-.28,8.36-4.86.88-5.72-2.1-9.07-7.12-11.14-8.8-3.64-18.18-.92-23.44,7.81-5.14,8.53-9.14,17.64-8.31,25.91Z"/>
    <path class="cls-3" d="m568.13,440.46c.26-3.45-.19-8.83,1.18-13.69,6.19-21.95,13.85-26.08,37.54-29.5,17.32-2.5,33.49,4.23,48.17,13.52,6.91,4.37,10.82,11.4,11.97,19.13,2.75,18.5-.36,35.92-12.39,50.96-12.44,15.57-29.71,17.57-47.35,14.53-18.52-3.2-30.44-15.46-36.71-33.17-2.31-6.54-2.11-13.31-2.42-21.77Zm70.38,10.54c0-3.29.24-5.58-.04-7.81-1.1-8.77-6.21-14.95-14.04-18.15-6.16-2.51-12.65-1.92-18.01,3.04-10.37,9.61-11.17,30.87-1.5,41.13,9.86,10.47,26.62,7.31,31.47-6.05,1.53-4.2,2.96-8.55,2.12-12.17Z"/>
    <path class="cls-1" d="m87.15,563.33c-2.18-15.12-8.58-25.6-22.18-31.42,41.24-24.82,83.88-45.12,130.83-55.4,15.76-3.45,31.43-6.99,47.76-5.93,10.31.67,15.81,5.57,16.11,15.09.29,9.12-5.34,15.24-15.26,16.2-41.91,4.03-81.85,14.87-118.9,35.1-13.2,7.21-26.08,15.17-38.34,26.36Z"/>
    <path class="cls-7" d="m636.49,610.94c-.68,20.58-6.5,37.11-23.59,48.02-14.65,9.35-30.09,10.57-46.94,5.26,2.04-4.19,8.77-5.1,5.37-10.51-1.72-2.74-4.06-5.05-7.99-3.85-20.01,6.13-39.74,4.16-59.3-2.19-2.14-.69-4.31-1.3-6.49-1.83-4.8-1.18-8.82.72-10.31,4.99-1.59,4.56,2.28,6.83,6.07,8.25,1.17.44,2.55.29,3.15,2.76-4.2.91-7.86,3.95-12.8,2.12-8.2-3.04-16.48-6.05-21.74-13.62-6.42-9.25-7.09-19.76-6.24-30.59.33-4.15,3.46-4.03,5.45-3.08,4.66,2.23,9.42,1.65,14.17,1.64,8.87-.03,17.08-.53,24.25,7.55,5.34,6.01,14.2,8.21,22.85,8.15,12.86-.09,25.75.98,38.29-3.58,4.73-1.72,9.38-3.47,11.87-7.67,2.99-5.05,6.73-4.68,11.47-3.89,17.73,2.95,35.23,3.53,52.45-7.95Z"/>
    <path class="cls-3" d="m463.58,400.78c2.91,0,5.83.02,8.74,0,21.35-.17,37.18,13.56,39.76,35,.88,7.32.86,14.7-1.16,22.06-1.98,7.21-4.91,12.98-12.78,15.15-3.73,1.03-6.73,3.59-9.27,6.51-13.25,15.24-39.18,12.63-52.58,2.1-17.98-14.11-20.89-33.04-16.34-53.13,5.31-23.45,8.24-27.65,35.86-27.69,2.59,0,5.18,0,7.77,0Zm31.07,48.09c-.1-10.35-3.81-18.85-9.41-23.46-5.26-4.33-12.84-4.88-17.8-.42-14.89,13.4-15.03,31.15-1.45,45.61,5.7,6.07,12.93,5.63,18.87-.23,6.49-6.4,9.36-14.47,9.79-21.51Z"/>
    <path class="cls-3" d="m577.18,822.81c.5-2.78.71-4.64,1.17-6.43,4.74-18.18,14.94-29.59,35.08-31.05,15.55-1.13,28.97-8.26,39.88-19.54,3.21-3.32,6.46-5.05,11.33-5.97,21.39-4.05,37.51-16.2,48.77-34.76,2.95-4.87,5.61-9.92,8.87-15.72,3.9,8.52,3.14,16.58,5.43,23.99,1.22,3.96-.74,7.27-3.34,10.55-27.69,34.94-62.66,58.9-105.79,70.7-13.52,3.7-27.22,6.36-41.4,8.24Z"/>
    <path class="cls-7" d="m422.54,569.28c-15.01-25.88-9.73-52.83,2.74-76.6,22.15,12.73,31.38,14.97,48.13,11.69-1.52,8.58-7.05,16.68-1.94,25.76-22.4,5.18-38.32,17.99-48.93,39.16Z"/>
    <path class="cls-4" d="m125.58,613.3c-7.44,7.35-7.32,7.19-14.55,1.81-12.91-9.61-28.07-15.56-41.01-25.23-7.82-5.84-14.33-12.81-20.74-19.96-5.03-5.62-4.52-12.72-3.02-19.34,1.66-7.34,6.83-9.46,14.08-6.81,9.02,3.29,15.84,11.02,14.24,20.38-2.8,16.29,4.71,23.86,18.67,29.17,11.69,4.44,21.34,12.81,32.32,19.97Z"/>
    <path class="cls-3" d="m480.92,783.5c7.18,0,13.71.75,20.01-.14,17.28-2.45,31.23,13.09,32.71,30.57.26,3.07-1.19,6.39,1.15,9.2-22.29-1.43-40.74-15.87-53.87-39.63Z"/>
    <path class="cls-7" d="m504.22,613.9c11.27-6.79,21.2-13.26,27.82-24.65,7.63,11.99,17.8,19.7,32.03,24.56-20.75,7.52-39.86,5.76-59.85.09Z"/>
    <path class="cls-8" d="m540.92,796.28c10.54-4.45,20.63-6.29,31.99-4.23-4.73,9.83-9.48,19.21-10.23,29.84-.21,2.92-2.38,2.4-4.18,2.52-2.83.19-5.8-.57-8.75,1.39-1.02-10.22-2.68-20.18-8.83-29.52Z"/>
    <path class="cls-3" d="m453.63,737.62c-10.03-17.64-9.98-32.15.77-52.21-2.4,18.53-4.16,34.88-.77,52.21Z"/>
    <path class="cls-3" d="m484.25,703.3c-.2,17.07,1.77,33.74,6.2,50.13-10.61-15.73-11.8-32.6-6.2-50.13Z"/>
    <path class="cls-3" d="m620.87,698.22c2.77,17.61,3.14,34.92-7.84,50.29,5.95-16.24,6.32-33.32,7.84-50.29Z"/>
    <path class="cls-3" d="m718.52,605.76c8.83,13.2,10.12,33.57,2.76,51.39,1.7-18.55.46-34.92-2.76-51.39Z"/>
    <path class="cls-3" d="m689.48,642.74c6.26,14.94,7.91,29.91,0,44.97,3.31-15.02.32-29.98,0-44.97Z"/>
    <path class="cls-3" d="m579.45,709.31c1.09,15.59,2.14,31.18-6.88,45.27,2.85-15.01,2.63-30.47,6.88-45.27Z"/>
    <path class="cls-3" d="m531.15,756.71c-6.81-15.03-6.97-30.45-2.23-46.06,1.25,15.3-.31,30.74,2.23,46.06Z"/>
    <path class="cls-3" d="m406.68,609.46c-2.5,12.82-6.91,25.19-8.35,39.59-4.88-10.41-1.09-27.61,8.35-39.59Z"/>
    <path class="cls-3" d="m660.54,673.34c1.27,14.7,3.4,29.52-2.3,43.94.06-14.66-.9-29.34,2.3-43.94Z"/>
    <path class="cls-3" d="m609.52,579.83c9.67,2.76,19.15,5.86,29.18,10.97-12.74,1.92-21.14-4.16-29.18-10.97Z"/>
    <path class="cls-3" d="m420.32,692.45c-6.4-12.83-2.81-24.77,3.89-36.38-2.48,11.97-4.77,23.95-3.89,36.38Z"/>
    <path class="cls-3" d="m748.47,602.79c-4.41-11.5-3.6-22.93-6.59-33.76,7.47,6.68,8.9,13.77,6.59,33.76Z"/>
    <path class="cls-3" d="m592.18,596.71c-11.19-2.08-17.83-9.38-22.66-18.79,8.91,4.62,13.91,14.08,22.66,18.79Z"/>
    <path class="cls-3" d="m479.4,594.02c4.4-4.51,8.47-9.41,15.08-13.54-.71,9.43-6.17,12.85-12.92,15.17-.72-.54-1.44-1.09-2.17-1.63Z"/>
    <path class="cls-3" d="m457.96,581.73c-3.9,4.7-8.02,9.03-16.13,9.58,4.78-5.51,9.57-8.8,14.86-11.48.42.63.84,1.27,1.27,1.9Z"/>
    <path class="cls-3" d="m456.69,579.83c1.7-1.74,2.97-4.1,7.11-4.08-1.86,2.74-3.46,4.66-5.84,5.98-.42-.63-.84-1.27-1.27-1.9Z"/>
    <path class="cls-3" d="m481.57,595.65c-1.23,1.36-2.81,2.73-4.23.83-.74-.99,1.32-1.62,2.07-2.46.72.54,1.44,1.09,2.17,1.63Z"/>
    <path class="cls-2" d="m615.17,979.6c-.22-12.33,8.8-22.92,19.79-22.99,13.15-.09,24.48,10.34,24.67,22.01.2,11.97-11.33,22.27-24.33,22.42-10.71.12-19.93-9.68-20.14-21.43Z"/>
    <path class="cls-2" d="m443.9,977.14c.4-12.89,8.78-20.96,21.46-20.68,12.94.29,22.23,10.16,21.66,23-.53,11.87-10.74,20.56-23.68,20.15-12.45-.4-19.87-8.97-19.44-22.47Z"/>
    <path class="cls-2" d="m649.93,900.26c-13.05-.09-23.2-9.24-23.11-20.82.09-12.04,10.5-22.34,22.18-21.96,11.3.36,20.79,10,20.73,21.05-.08,14.14-7.07,21.82-19.8,21.73Z"/>
    <path class="cls-2" d="m475.01,904.05c-11.76.1-21.34-8.71-21.05-19.98.36-13.94,8.35-21.37,21.35-22.6,10.97-1.04,21.38,9.81,21.53,21.33.17,12.84-8.34,21.14-21.83,21.26Z"/>
    <path class="cls-2" d="m679.5,366.31c.46,4.34-.44,7.72-4.59,9.89-4.6,2.4-8.74,1.44-12.74-1.19-9.95-6.55-19.97-12.67-31.9-15.43-12.79-2.96-24.86-1.87-36.66,3.5-10.39,4.73-16.3.94-15.23-10.38.82-8.63,5-15.64,13.19-19.33,24.46-11.02,48.09-8.49,70.35,5.75,9.7,6.21,16.96,14.82,17.58,27.19Z"/>
    <path class="cls-2" d="m238.35,771.56c.53,4.94-.09,9.97-3.72,11.68-.89.42-1.91.5-2.9.42-1.3-.11-2.89-.3-3.8-1.23-3.04-3.13-2.9-11.22-3.93-15.31-1.43-5.63-3.23-11.85-7.85-15.74-4.41-3.71-11.04-4.2-14.59-9.03-1.19-1.62-2.22-3.2-2.11-5.21.2-3.89,3.05-6.38,6.8-6.03,4.64.44,9.96,3.16,13.67,5.91,8.19,6.08,12.83,13.3,16.23,24.88.64,2.18,1.81,5.88,2.21,9.65Z"/>
    <g>
      <path class="cls-6" d="m248.95,638.71c-1.8-.29-3.61-.36-5.37-.43-2.88-.11-5.6-.21-8.31-1.21-10.5-3.86-15.96-11.39-15-20.66,1.05-10.04,8.94-18.48,18.37-19.63,1.74-.21,3.47-.32,5.13-.32,11.09,0,20.29,4.72,27.33,14.02,4.01,5.3,5.47,10.5,4.22,15.03-1.28,4.64-5.33,8.46-11.73,11.05-4.05,1.64-8.25,1.85-12.69,2.06-.65.03-1.3.06-1.95.1Z"/>
      <path class="cls-2" d="m243.77,594.95v3s0,0,0,0c10.6,0,19.39,4.52,26.13,13.43,3.72,4.92,5.09,9.66,3.97,13.72-1.15,4.17-4.9,7.65-10.84,10.06-3.82,1.55-7.89,1.74-12.21,1.95-.6.03-1.19.06-1.8.09-1.83-.29-3.64-.36-5.39-.42-2.76-.11-5.36-.2-7.85-1.12-9.95-3.66-14.92-10.44-14.02-19.09.98-9.36,8.31-17.23,17.06-18.3,1.68-.21,3.35-.31,4.95-.31v-3m0,0c-1.73,0-3.5.11-5.32.33-10.31,1.26-18.58,10.46-19.68,20.97-1.07,10.22,4.98,18.18,15.97,22.22,4.77,1.75,9.55.96,14.12,1.74,5.27-.3,10.34-.27,15.29-2.28,13.67-5.54,17.08-16.55,8.14-28.37-7.34-9.71-17.01-14.62-28.52-14.62h0Z"/>
    </g>
    <g>
      <path class="cls-6" d="m235.15,576.02c-7.81-.18-13.45-2.52-17.94-4.78-5.7-2.88-12.47-8.2-12.31-17.2.14-8.36,8.91-17.91,17.7-19.27,2.94-.46,5.78-.69,8.44-.69,11.24,0,20.04,4,26.89,12.23,6.11,7.34,5.42,15.66-1.8,21.72-5.27,4.42-12.13,7.04-20.97,8Z"/>
      <path class="cls-2" d="m231.04,535.57h0c10.77,0,19.19,3.82,25.73,11.69,5.6,6.73,5,14.06-1.61,19.61-5.01,4.21-11.58,6.71-20.07,7.64-7.46-.19-12.88-2.44-17.2-4.62-7.74-3.91-11.6-9.23-11.49-15.84.13-7.58,8.42-16.57,16.43-17.81,2.86-.44,5.63-.67,8.21-.67m0-3c-2.83,0-5.72.25-8.67.71-9.33,1.45-18.82,11.49-18.97,20.73-.15,8.67,5.47,14.7,13.14,18.57,5.5,2.77,11.2,4.79,18.68,4.95,7.22-.77,15.25-2.79,21.87-8.35,7.91-6.64,8.58-15.91,1.99-23.83-7.68-9.22-17.36-12.77-28.04-12.77h0Z"/>
    </g>
    <g>
      <path class="cls-6" d="m167.33,599.46c-9.65,0-18.58-4.08-23.9-10.91-5.26-6.76-6.54-13.2-3.8-19.14,3.1-6.72,8.99-10.76,17.04-11.69.8-.09,1.65-.13,2.75-.13.78,0,1.6.02,2.49.04,1.07.03,2.24.06,3.54.06h.19c1.01-.14,2.03-.21,3.02-.21,7.83,0,14.92,4.01,21.07,11.91,6.72,8.65,5.89,16.01-2.61,23.18-5.27,4.45-12.3,6.89-19.79,6.89Z"/>
      <path class="cls-2" d="m168.67,558.97c7.35,0,14.04,3.81,19.88,11.33,6.2,7.98,5.46,14.49-2.39,21.12-5,4.22-11.69,6.54-18.82,6.54-9.19,0-17.68-3.86-22.72-10.33-4.89-6.28-6.11-12.2-3.62-17.59,2.87-6.22,8.35-9.97,15.85-10.83.74-.09,1.54-.12,2.58-.12.77,0,1.58.02,2.45.04,1.06.03,2.25.06,3.58.06h.19l.19-.02c.95-.12,1.9-.18,2.83-.18m0-3c-1.05,0-2.12.07-3.21.21-2.39,0-4.31-.1-6.04-.1-1.02,0-1.98.03-2.92.14-8.25.96-14.8,5.13-18.23,12.56-3.42,7.4-.72,14.66,3.98,20.69,5.9,7.58,15.48,11.49,25.08,11.49,7.49,0,14.98-2.38,20.76-7.25,9.06-7.64,10.1-15.89,2.83-25.25-5.99-7.71-13.48-12.49-22.25-12.49h0Z"/>
    </g>
    <path class="cls-2" d="m282.03,668.26c3.63,1.11,5.77,3.6,6.44,7.27.49,2.66-1.25,2.96-3.37,3.13-4.9.39-5.44-3.21-6.09-6.56-.41-2.15.8-3.5,3.01-3.84Z"/>
    <path class="cls-2" d="m768.41,501.69c.03-1.93.17-3.86.46-5.79.94-6.23,3.48-12.48,6.65-17.91,2.25-3.86,5.44-7.98,9.58-9.88,4.86-2.24,10.31-2.17,15.23-.13,4.45,1.84,8.02,5.53,7.22,10.7-.74,4.78-5.04,7.87-9.37,4.74-1.35-.98-2.56-2.21-4.12-2.83-5.31-2.1-10.01,4.31-11.7,8.51-1.92,4.76-2.07,9.99-2.53,15.04-.39,4.19-.77,8.38-1.16,12.57-.24,2.59.26,7.29-3.15,7.96-3.7.73-4.93-4.14-5.67-6.87-1.01-3.72-1.14-7.53-1.34-11.35-.08-1.59-.13-3.17-.1-4.75Z"/>
    <path class="cls-2" d="m638.86,451.01c-.14,4.6-.94,9.23-2.99,13.34-4.21,8.42-14.2,13.01-23.24,9.55-6.62-2.54-11.49-8.7-13.4-15.52-2.7-9.61-.73-22.74,6.78-29.81,6.38-6.01,16.36-5.83,23.34-.95,7.3,5.11,9.7,14.43,9.52,22.92,0,.15,0,.31-.01.46Z"/>
    <path class="cls-2" d="m494.65,448.88c-.42,7.04-3.3,15.11-9.79,21.51-5.94,5.86-13.17,6.3-18.87.23-13.58-14.46-13.44-32.21,1.45-45.61,4.95-4.46,12.54-3.91,17.8.42,5.6,4.61,9.32,13.1,9.41,23.46Z"/>
    <path class="cls-2" d="m874.7,990.52c-3.9-2.93-5.42-5.67-2.49-9.57.59-.79.67-1.65.55-2.59-.08-.64-.39-1.42-.02-2.02.58-.94,2.35-.91,3.28-.96,2.89-.14,5.72.39,8.59.48,3.15.1,6.3.13,9.44.1,13.57-.13,27.24-1.34,40.75-2.62,13.03-1.24,26.58-2.56,39.32-5.89,2.99-.78,5.94-1.74,8.77-3,1.8-.8,3.86-1.81,5.02-3.49-6.94-45.38,21.65,4.03,17.64,6.81-23.15,16-89.51,22.77-130.83,22.77Z"/>
  </g>
</svg>